PathFileType	4	(X/Y/Z)	C:\Users\WrightLab\Desktop\Jo\P2_Trial30.trc
DataRate	CameraRate	NumFrames	NumMarkers	Units	OrigDataRate	OrigDataStartFrame	OrigNumFrames
100.00	100.00	       10	19	mm	100.00	444	       591
Frame#	Time	Headset_Front			Headset_Back			Headset_Left			Headset_Right			Left_Shoulder			Right_Shoulder			Sternum			C7			Left Elbow			Right Elbow			Left Wrist			Right Wrist			Left ASIS			Right ASIS			S2			Left Knee			Right Knee			Left Ankle			Right Ankle			
		X1	Y1	Z1	X2	Y2	Z2	X3	Y3	Z3	X4	Y4	Z4	X5	Y5	Z5	X6	Y6	Z6	X7	Y7	Z7	X8	Y8	Z8	X9	Y9	Z9	X10	Y10	Z10	X11	Y11	Z11	X12	Y12	Z12	X13	Y13	Z13	X14	Y14	Z14	X15	Y15	Z15	X16	Y16	Z16	X17	Y17	Z17	X18	Y18	Z18	X19	Y19	Z19	

444	4.430	-76.52881	1486.83887	1814.75952	87.15835	1616.05286	1782.87646							200.14502	1477.47644	1688.99426				27.31292	1352.26038	1673.67847							-123.79595	1180.72400	1373.85925				-154.54607	936.59204	1315.32605	71.83942	1068.97302	1719.08167	-44.94378	1043.49170	1658.35669	149.19160	981.77722	1469.99341	256.95508	484.54428	1625.04138	-85.55594	576.65430	1623.87976	198.73766	143.78929	1553.94495	-53.25320	165.49246	1769.65857	
445	4.440	-82.54227	1485.00854	1820.80396	81.27145	1614.63098	1791.98218	40.07716	1721.05188	1661.99573				196.22878	1476.32898	1698.00391				23.41831	1350.87488	1681.78198							-124.32771	1178.60657	1381.55811				-153.20425	935.17206	1322.32166	68.25166	1066.99121	1726.96008	-48.23625	1041.09973	1666.06311	145.98911	980.27411	1478.46899	257.50894	483.46869	1625.98389	-85.50421	572.69586	1625.42737	199.56552	140.93182	1555.49524	-63.70171	167.32043	1790.86414	
446	4.450	-88.71385	1484.08350	1826.86072	76.06892	1613.43066	1799.78711							191.80481	1474.43201	1707.05457				18.64148	1349.36560	1690.43188				200.53326	1029.54321	1403.14880	-125.39468	1176.49976	1389.25024	125.91568	972.37128	1441.33362	-152.69580	932.61591	1330.54297	64.38450	1064.97424	1735.72131	-52.13317	1039.51416	1675.11951	142.41309	978.13910	1487.49524	258.32590	481.90445	1625.94141	-82.52534	571.94000	1630.46973	200.57480	138.43875	1557.34253	-74.96056	171.46233	1810.53113	
447	4.460	-94.55475	1483.97803	1834.75671	70.28448	1612.11926	1808.19958	32.10733	1718.26147	1678.39233				187.57932	1473.29065	1715.43579				13.77730	1348.40381	1698.92322							-126.63901	1174.21765	1397.24951				-152.40347	930.61053	1339.00183	59.94434	1063.22852	1745.58948	-56.57581	1037.88965	1684.75098	137.65973	977.60114	1496.02808	259.12814	481.55005	1628.80481	-79.93127	571.56543	1638.75061	202.49603	137.64520	1559.40723	-86.38472	177.49570	1826.48840	
448	4.470	-100.82724	1482.15112	1840.30200	64.68545	1610.69067	1815.76489							182.24442	1472.35925	1725.86682				9.38155	1346.77454	1707.17285							-127.93295	1171.90503	1405.35791				-151.95216	927.78235	1347.37732	55.30753	1061.30530	1755.03577	-60.72351	1036.49634	1693.15967	133.73457	975.98206	1505.04871	258.38831	482.66803	1631.89368	-77.26436	572.36945	1646.56506	202.31012	136.88911	1562.32178	-98.01937	183.71436	1843.82385	
449	4.480	-106.94151	1481.44983	1848.06836	58.89565	1609.24133	1823.20703	23.74782	1715.72083	1693.31763				177.94704	1470.75696	1734.54053				3.93335	1346.16260	1716.25610							-129.86633	1169.77490	1413.51733				-151.93199	925.33258	1355.84021	50.53698	1059.29688	1764.09399	-65.38892	1034.97498	1701.83240	128.84938	975.04004	1514.10974	257.46960	483.40213	1634.05029	-74.62853	573.08057	1653.50342	202.69672	136.16714	1564.99182	-109.14442	189.95403	1858.51099	
450	4.490	-113.17869	1481.23633	1854.32300	52.74160	1608.62537	1832.49182	19.04265	1714.94214	1701.04395				173.22203	1469.44690	1743.50244				-1.21202	1345.26550	1724.90234				240.89804	1022.28589	1453.54968	-131.18178	1168.06958	1419.36072	111.47590	971.85638	1415.76404	-152.45297	922.57739	1364.12476	44.57163	1057.72986	1774.54785	-70.56506	1033.08691	1710.83435	124.34324	973.80157	1523.72021	256.14941	484.00751	1636.32129	-72.23586	573.30261	1662.02954	202.39471	131.53961	1559.57678	-120.01041	195.65648	1871.67920	
451	4.500	-119.81212	1480.49805	1861.65759	46.93212	1608.36694	1840.84998							167.48155	1468.88806	1753.96191				-6.82781	1344.05078	1734.01672							-133.70990	1165.73633	1428.16772				-153.44502	920.24640	1373.23389	38.97501	1055.62842	1784.00061	-75.94271	1031.67505	1719.22620	120.11358	973.20117	1532.68445	253.68759	485.65775	1639.81189	-70.42353	573.88348	1670.16748	202.16956	132.26990	1562.74585	-130.30472	201.16617	1884.41492	
452	4.510	-125.87362	1480.33655	1868.69910	41.01126	1607.57031	1849.30603	9.64338	1712.98462	1715.58008				161.94064	1468.19604	1763.06775				-12.24108	1343.69275	1742.24902							-135.80200	1163.63501	1436.03674				-154.61455	918.01520	1381.92651	32.76108	1053.94897	1793.98828	-81.78648	1030.34424	1727.82996	115.54743	972.20245	1542.65771	251.33379	485.74387	1642.81873	-69.48739	575.25964	1680.56506	201.40581	133.40810	1565.65210	-140.01987	205.93672	1892.73547	
453	4.520	-132.82005	1480.30200	1875.39868	34.70710	1607.09570	1856.70325	4.39955	1712.24646	1723.59534				156.18211	1466.99756	1772.32813				-18.03576	1343.33435	1750.26917							-138.53897	1161.32788	1444.44287				-156.04880	915.51556	1390.51941	26.55333	1052.04407	1803.48242	-87.84047	1029.15991	1736.29883	112.12843	971.81500	1553.07544	247.75871	486.86627	1648.32056	-70.52593	576.20453	1691.34448	200.82127	133.52354	1568.43005	-147.96536	208.88794	1903.28845	
